<?xml version="1.0" encoding="UTF-8" standalone="no"?>
<svg
   version="1.1"
   id="Layer_1"
   x="0px"
   y="0px"
   viewBox="0 0 24.000001 24"
   xml:space="preserve"
   sodipodi:docname="bizum.svg"
   inkscape:version="1.4.3 (0d15f75042, 2025-12-25)"
   width="24"
   height="24"
   xmlns:inkscape="http://www.inkscape.org/namespaces/inkscape"
   xmlns:sodipodi="http://sodipodi.sourceforge.net/DTD/sodipodi-0.dtd"
   xmlns="http://www.w3.org/2000/svg"
   xmlns:svg="http://www.w3.org/2000/svg"
   xmlns:ns="ns_sfw;"><defs
   id="defs1" /><sodipodi:namedview
   id="namedview1"
   pagecolor="#505050"
   bordercolor="#ffffff"
   borderopacity="1"
   inkscape:showpageshadow="0"
   inkscape:pageopacity="0"
   inkscape:pagecheckerboard="1"
   inkscape:deskcolor="#d1d1d1"
   showgrid="false"
   inkscape:zoom="16.9"
   inkscape:cx="19.053254"
   inkscape:cy="25"
   inkscape:window-width="1920"
   inkscape:window-height="1031"
   inkscape:window-x="0"
   inkscape:window-y="0"
   inkscape:window-maximized="0"
   inkscape:current-layer="g1" />
 <style
   type="text/css"
   id="style1">
  .st0{fill-rule:evenodd;clip-rule:evenodd;fill:#05C0C7;}
 </style>
 <metadata
   id="metadata1">
  <ns:sfw>
   <ns:slices>
   </ns:slices>
   <ns:sliceSourceBounds
   bottomLeftOrigin="true"
   height="50"
   width="38.1"
   x="-64.8"
   y="-209.4">
   </ns:sliceSourceBounds>
   <ns:optimizationSettings>
    <ns:targetSettings
   fileFormat="PNG24Format"
   targetSettingsID="0">
     <ns:PNG24Format
   filtered="false"
   interlaced="false"
   matteColor="#FFFFFF"
   noMatteColor="false"
   transparency="true">
     </ns:PNG24Format>
    </ns:targetSettings>
   </ns:optimizationSettings>
  </ns:sfw>
 </metadata>
 <g
   id="g1">
  <path
   class="st0"
   d="M 7.2747309,8.5959081 C 8.1395013,9.2204645 9.3886141,9.0282933 10.013171,8.1635228 L 12.319225,4.992698 C 12.943781,4.1279276 12.75161,2.8788148 11.88684,2.2542584 11.022069,1.629702 9.7729565,1.8218732 9.1484001,2.6866436 L 6.8423457,5.8574684 C 6.2177893,6.7222388 6.4099605,7.9233088 7.2747309,8.5959081 Z M 17.748061,4.1279276 C 16.883291,3.5033712 15.634178,3.6955424 15.009622,4.5603128 L 5.7854041,17.19557 c -0.6245564,0.86477 -0.4323852,2.113883 0.4323852,2.738439 0.8647704,0.624557 2.1138832,0.432386 2.7384396,-0.432385 L 18.132404,6.8663672 C 18.805003,6.0015968 18.612832,4.752484 17.748061,4.1279276 Z M 6.4099605,3.1190288 C 7.0345169,2.2542584 6.8423457,1.0051456 5.9775753,0.38058918 5.1128049,-0.24396723 3.8636921,-0.09983882 3.2391357,0.81297439 2.6145793,1.6777448 2.7587077,2.8788148 3.6715209,3.551414 4.5362913,4.1759704 5.7373613,3.9837992 6.4099605,3.1190288 Z M 20.342373,20.46248 c -0.864771,-0.624556 -2.113884,-0.432385 -2.73844,0.432385 -0.624556,0.864771 -0.432385,2.113884 0.432385,2.73844 0.864771,0.624556 2.113883,0.432385 2.73844,-0.432385 0.624556,-0.864771 0.432385,-2.065841 -0.432385,-2.73844 z m -3.60321,-4.996451 c -0.864771,-0.624556 -2.113884,-0.432385 -2.73844,0.432385 l -2.306054,3.170825 c -0.624557,0.86477 -0.432386,2.113883 0.432385,2.73844 0.86477,0.624556 2.113883,0.432385 2.738439,-0.432386 l 2.306055,-3.170824 c 0.624556,-0.864771 0.432385,-2.113884 -0.432385,-2.73844 z"
   id="path1"
   style="fill:#ffffff;fill-opacity:1;stroke-width:0.480428">
  </path>
 </g>
</svg>
