<?xml version="1.0" encoding="UTF-8" standalone="no"?>
<!-- Created with Inkscape (http://www.inkscape.org/) -->

<svg
   version="1.1"
   id="svg1"
   width="200"
   height="64"
   viewBox="0 0 200 64"
   sodipodi:docname="logo.svg"
   inkscape:version="1.4.3 (0d15f75042, 2025-12-25)"
   xmlns:inkscape="http://www.inkscape.org/namespaces/inkscape"
   xmlns:sodipodi="http://sodipodi.sourceforge.net/DTD/sodipodi-0.dtd"
   xmlns="http://www.w3.org/2000/svg"
   xmlns:svg="http://www.w3.org/2000/svg">
  <defs
     id="defs1" />
  <sodipodi:namedview
     id="namedview1"
     pagecolor="#505050"
     bordercolor="#ffffff"
     borderopacity="1"
     inkscape:showpageshadow="0"
     inkscape:pageopacity="0"
     inkscape:pagecheckerboard="true"
     inkscape:deskcolor="#d1d1d1"
     showgrid="false"
     inkscape:zoom="2.3340048"
     inkscape:cx="118.25169"
     inkscape:cy="29.777146"
     inkscape:window-width="1920"
     inkscape:window-height="1031"
     inkscape:window-x="0"
     inkscape:window-y="0"
     inkscape:window-maximized="0"
     inkscape:current-layer="g1">
    <inkscape:page
       x="0"
       y="0"
       width="200"
       height="64"
       id="page1"
       margin="0"
       bleed="0" />
    <inkscape:page
       x="210"
       y="0"
       width="64"
       height="64"
       id="page2"
       margin="0 0 0 0"
       bleed="0" />
    <inkscape:page
       x="0.7957775"
       y="72.836189"
       width="200"
       height="64"
       id="page3"
       margin="0"
       bleed="0" />
    <inkscape:page
       x="209.87848"
       y="73.264633"
       width="64"
       height="64"
       id="page4"
       margin="0"
       bleed="0"
       inkscape:export-filename="logo-dark-small-64x64.png"
       inkscape:export-xdpi="96"
       inkscape:export-ydpi="96" />
  </sodipodi:namedview>
  <g
     inkscape:groupmode="layer"
     inkscape:label="Image"
     id="g1">
    <text
       xml:space="preserve"
       style="font-size:15.1843px;line-height:1.25;font-family:Galada;-inkscape-font-specification:'Galada, Normal';text-align:center;text-anchor:middle;stroke-width:0.143285"
       x="99.024071"
       y="28.673407"
       id="text1"><tspan
         sodipodi:role="line"
         id="tspan1"
         x="99.024071"
         y="28.673407"
         style="font-style:normal;font-variant:normal;font-weight:normal;font-stretch:normal;font-family:Dosis;-inkscape-font-specification:Dosis;stroke-width:0.143285">Asociación</tspan></text>
    <text
       xml:space="preserve"
       style="font-size:37.2226px;line-height:1.25;font-family:Galada;-inkscape-font-specification:'Galada, Normal';text-align:center;text-anchor:middle;stroke-width:0.351246"
       x="130.44987"
       y="59.557053"
       id="text2"><tspan
         sodipodi:role="line"
         id="tspan2"
         x="130.44987"
         y="59.557053"
         style="font-style:normal;font-variant:normal;font-weight:normal;font-stretch:normal;font-family:'Nimbus Sans';-inkscape-font-specification:'Nimbus Sans';stroke-width:0.351246">EnciCat</tspan></text>
    <text
       xml:space="preserve"
       style="font-size:15.1843px;line-height:1.25;font-family:Galada;-inkscape-font-specification:'Galada, Normal';text-align:center;text-anchor:middle;stroke-width:0.143285;fill:#ffffff"
       x="99.819847"
       y="101.5096"
       id="text1-2"><tspan
         sodipodi:role="line"
         id="tspan1-7"
         x="99.819847"
         y="101.5096"
         style="font-style:normal;font-variant:normal;font-weight:normal;font-stretch:normal;font-family:Dosis;-inkscape-font-specification:Dosis;stroke-width:0.143285;fill:#ffffff">Asociación</tspan></text>
    <text
       xml:space="preserve"
       style="font-size:37.2226px;line-height:1.25;font-family:Galada;-inkscape-font-specification:'Galada, Normal';text-align:center;text-anchor:middle;stroke-width:0.351246;fill:#ffffff"
       x="131.24565"
       y="132.39323"
       id="text2-0"><tspan
         sodipodi:role="line"
         id="tspan2-9"
         x="131.24565"
         y="132.39323"
         style="font-style:normal;font-variant:normal;font-weight:normal;font-stretch:normal;font-family:'Nimbus Sans';-inkscape-font-specification:'Nimbus Sans';stroke-width:0.351246;fill:#ffffff">EnciCat</tspan></text>
    <g
       id="g4"
       transform="matrix(0.31574079,0,0,0.31574079,-2.1151855,-14.514006)">
      <path
         style="fill:#000000;fill-opacity:1;stroke:none;stroke-width:0.264583px;stroke-linecap:butt;stroke-linejoin:miter;stroke-opacity:1"
         d="m 65.926207,243.83729 c -1.211597,-1.32212 -0.373243,-4.21623 -1.241633,-5.78526 -1.881611,-3.39975 -6.836937,-4.79152 -9.038601,-7.99331 -1.468818,-2.13604 -2.391251,-4.48578 -2.540263,-7.07381 -0.137413,-2.38656 1.794786,-5.63431 1.426161,-7.09396 -0.392467,-1.55407 -1.501398,-1.11865 -3.164385,-4.89428 -1.227767,-2.7875 -0.947034,-15.08513 0.0083,-15.62244 1.627531,-0.91533 5.025599,2.76176 7.114119,4.37407 2.374754,-0.47653 6.127348,-0.23594 8.372444,0.21476 0.788009,-0.43081 6.27377,-5.62034 7.416103,-4.65936 1.225354,1.03082 0.593291,11.94074 0.01008,13.33724 -0.963255,2.30653 -2.8218,4.07813 -2.177821,4.84562 0.845276,1.0074 3.827271,-1.53558 5.6275,-2.53019 4.067619,-2.24732 11.794024,-1.21006 14.119127,-0.1661 12.557332,5.6382 14.814362,16.90573 14.617452,26.30369 -0.10515,5.01849 7.27217,6.5918 11.95801,4.40602 1.90744,-0.88975 3.7242,-1.79585 5.26677,-3.53691 1.40347,-1.58406 2.48818,-4.14054 4.50506,-5.03188 1.47015,-0.64971 3.74533,0.20224 4.18291,2.58892 0.44229,2.41234 -1.84543,5.24027 -3.60571,6.94802 -2.84359,2.75872 -6.95115,4.64008 -10.80706,5.55034 -3.82604,0.9032 -9.38052,0.97824 -12.61581,-0.52855 -2.64584,-1.23227 -3.35502,-2.97344 -5.19625,-3.14596 -2.201997,-0.20632 -22.319181,1.24788 -24.417788,-0.0386 -1.709859,-1.04816 0.290811,-3.82565 0.66443,-6.2735 0.175639,-1.15074 -0.332133,-3.10244 -1.494968,-3.15604 -2.399542,-0.1106 -0.873785,7.13708 -3.078888,9.16613 -1.486191,1.36754 -4.26871,1.5856 -5.909333,-0.20468 z"
         id="path1"
         inkscape:label="cat"
         sodipodi:nodetypes="sssssssccsssssssssssssssssss" />
      <path
         style="fill:#000000;fill-opacity:1;stroke:none;stroke-width:0.264583px;stroke-linecap:butt;stroke-linejoin:miter;stroke-opacity:1"
         d="m 62.954697,244.17785 c 0,0 0.150898,-4.23237 -1.079696,-5.73071 -1.090738,-1.32804 -3.488257,-2.3255 -6.976512,-5.81375 -20.7506,-1.98915 -32.003344,3.69787 -40.447147,11.37835 z"
         id="path2"
         sodipodi:nodetypes="csccc"
         inkscape:label="tree_root" />
      <path
         style="display:inline;fill:#000000;fill-opacity:1;stroke:none;stroke-width:0.264583px;stroke-linecap:butt;stroke-linejoin:miter;stroke-opacity:1"
         d="m 95.222134,209.40328 c 12.778156,7.99404 14.174996,18.5183 13.748216,27.63648 -0.16973,3.62615 7.34575,4.47858 11.40154,0.77354 4.37952,-4.00076 4.28042,-6.95261 7.84938,-7.41986 3.16906,-0.4149 6.54666,1.49297 6.72693,4.68398 0.29096,5.15024 -4.51787,9.14729 -4.51787,9.14729 l 68.77446,-0.15186 c -8.59521,-8.72996 -24.77447,-12.03474 -47.32873,-11.80012 -13.43709,0.13978 -23.241,-7.49517 -26.43342,-17.09397 -1.68428,-5.0642 -7.72099,-20.07393 0,-33.59232 3.27067,-5.7265 8.7901,-9.05432 18.44644,-8.84358 l 14.67605,-0.0831 1.38097,-4.06229 -23.90639,-1.40947 c 30.31533,-5.4534 25.66511,-6.42181 45.23121,-12.40999 -44.21239,11.36332 -47.29504,6.51964 -58.88213,14.12317 0.21587,-23.34783 18.43967,-20.05139 45.52069,-30.81612 -13.68965,3.00034 -23.21716,3.50162 -33.63751,7.07583 l 33.4881,-30.15659 -37.96567,27.13124 c 1.7058,-3.50197 3.71772,-7.69739 3.55217,-13.93101 -4.65767,9.18736 -11.21882,21.59632 -17.06547,23.31322 -2.82987,-3.96013 -10.08079,-23.48593 20.29967,-57.928241 -8.54699,6.653851 -16.56296,13.562091 -29.39241,38.954971 l -1.43797,-0.64773 c 4.04197,-12.16781 2.65893,-18.36577 1.05121,-25.67658 0.16076,8.16654 -1.65413,16.03538 -3.46912,22.00105 -4.317035,-15.97183 -11.149825,-26.45188 -21.001967,-32.46051 7.631636,9.99462 20.949757,21.77782 16.78781,52.34247 -0.151458,0.84842 -0.47477,1.65387 -1.504326,2.28275 -7.418938,-3.88175 -10.50633,-12.76143 -15.354733,-19.60918 0.522517,4.17075 1.673575,7.83866 3.303006,11.12388 l -38.80556,-27.33522 34.05278,29.67008 -34.050335,-6.48021 c 21.24758,10.79635 48.879362,5.68919 48.379925,31.61573 -17.321613,-10.4943 -21.131432,-3.86693 -61.105438,-14.50751 15.278735,4.0528 20.591314,9.21295 45.836205,12.15839 l -22.90731,1.49252 1.295468,3.67553 c 10.112782,1.40452 23.552354,-1.75483 30.277505,4.2972 10.027392,9.02375 8.112049,21.04773 6.686624,32.91609 z"
         id="path3"
         sodipodi:nodetypes="cssssccsssccccccccccccccccccccccccccccccsc"
         inkscape:label="tree_body" />
      <path
         style="fill:#295554;fill-opacity:1;stroke:none;stroke-width:0.264583px;stroke-linecap:butt;stroke-linejoin:miter;stroke-opacity:1"
         d="M 59.315106,172.4249 C 57.134473,154.43305 41.76339,145.22081 29.951193,147.64176 c -10.753928,2.20404 -14.826078,2.23518 -20.0849179,1.40947 5.5204159,18.79291 12.8569759,28.43601 24.6656869,32.18285 13.606471,4.31725 28.189359,-6.46007 28.189359,-6.46007 -22.389119,1.49991 -36.031326,-10.29022 -47.686997,-23.72604 14.416726,15.02695 29.238917,20.72818 44.280782,21.37693 z"
         id="path4"
         sodipodi:nodetypes="cscsccc"
         inkscape:label="leaf_01" />
      <path
         style="fill:#295554;fill-opacity:1;stroke:none;stroke-width:0.199086px;stroke-linecap:butt;stroke-linejoin:miter;stroke-opacity:1"
         d="m 50.555611,136.80579 c 1.272807,-13.57755 -8.556497,-22.80828 -17.628721,-22.91652 -8.259429,-0.0985 -11.258557,-0.72662 -14.993251,-2.17442 1.054792,14.70045 4.907636,22.96361 12.991318,27.60629 9.314341,5.34949 21.759627,-0.24358 21.759627,-0.24358 -16.701927,-2.47628 -24.847932,-13.3261 -31.270209,-25.06838 8.198051,13.35359 18.185041,19.91503 29.141236,22.79661 z"
         id="path4-2"
         sodipodi:nodetypes="cscsccc"
         inkscape:label="leaf_02" />
      <path
         style="fill:#295554;fill-opacity:1;stroke:none;stroke-width:0.199086px;stroke-linecap:butt;stroke-linejoin:miter;stroke-opacity:1"
         d="M 57.645808,114.23342 C 61.86431,101.26523 54.297819,90.104142 45.470031,88.009597 37.433129,86.102746 34.644668,84.832396 31.318237,82.601047 c -2.193706,14.574069 -0.246157,23.480883 6.623035,29.782833 7.914956,7.26137 21.283667,4.53279 21.283667,4.53279 C 43.472216,110.83901 37.903032,98.467256 34.2113,85.602656 39.282352,100.42868 47.587892,109.01998 57.645808,114.23342 Z"
         id="path4-2-0"
         sodipodi:nodetypes="cscsccc"
         inkscape:label="leaf_03" />
      <path
         style="fill:#295554;fill-opacity:1;stroke:none;stroke-width:0.287737px;stroke-linecap:butt;stroke-linejoin:miter;stroke-opacity:1"
         d="M 83.04063,91.68611 C 89.137596,72.943293 78.20181,56.812267 65.443082,53.785039 53.827414,51.029083 49.797275,49.193057 44.989612,45.968107 41.819067,67.031891 44.633843,79.904829 54.561829,89.012985 66.001249,99.507783 85.322935,95.564189 85.322935,95.564189 62.555656,86.780197 54.506561,68.899411 49.170932,50.306307 56.500081,71.734235 68.504008,84.151169 83.04063,91.68611 Z"
         id="path4-2-0-6"
         sodipodi:nodetypes="cscsccc"
         inkscape:label="leaf_04" />
      <path
         style="fill:#295554;fill-opacity:1;stroke:none;stroke-width:0.169047px;stroke-linecap:butt;stroke-linejoin:miter;stroke-opacity:1"
         d="m 85.367803,131.26464 c 6.789312,-9.38027 3.583902,-20.37202 -3.004043,-24.36569 -5.997742,-3.63585 -7.920027,-5.38927 -10.026562,-8.059526 -5.571618,11.205786 -6.319392,18.911186 -2.410919,25.794436 4.5035,7.93114 16.018242,9.21077 16.018242,9.21077 -11.145894,-9.01754 -12.421671,-20.46704 -12.051775,-31.82545 0.233499,13.30301 4.705983,22.4107 11.475057,29.24546 z"
         id="path4-2-0-6-7"
         sodipodi:nodetypes="cscsccc"
         inkscape:label="leaf_05" />
      <path
         style="fill:#295554;fill-opacity:1;stroke:none;stroke-width:0.169047px;stroke-linecap:butt;stroke-linejoin:miter;stroke-opacity:1"
         d="m 109.22358,109.22396 c 10.71757,-4.38385 13.7965,-15.411698 10.30883,-22.280932 -3.17526,-6.253806 -3.88252,-8.757693 -4.26236,-12.137551 -10.64681,6.577071 -15.348893,12.727091 -15.662191,20.636401 -0.360983,9.113402 8.743841,16.277822 8.743841,16.277822 -4.70743,-13.542048 0.25208,-23.940221 6.56129,-33.392426 -6.82307,11.422358 -7.83139,21.518718 -5.68941,30.896686 z"
         id="path4-2-0-6-7-3"
         sodipodi:nodetypes="cscsccc"
         inkscape:label="leaf_06" />
      <path
         style="fill:#295554;fill-opacity:1;stroke:none;stroke-width:0.265282px;stroke-linecap:butt;stroke-linejoin:miter;stroke-opacity:1"
         d="m 134.26124,91.397776 c -6.94153,-16.793327 1.95971,-32.401092 13.47146,-36.094011 10.48043,-3.361999 14.05393,-5.337186 18.24299,-8.644549 4.4172,19.135501 2.74832,31.169051 -5.72762,40.249566 -9.76627,10.462914 -27.80801,8.216503 -27.80801,8.216503 20.30084,-9.698553 26.4238,-26.708755 30.00171,-44.180108 -5.2081,20.219348 -15.35615,32.489358 -28.18053,40.452599 z"
         id="path4-2-0-6-7-3-2"
         sodipodi:nodetypes="cscsccc"
         inkscape:label="leaf_07" />
      <path
         style="fill:#295554;fill-opacity:1;stroke:none;stroke-width:0.223169px;stroke-linecap:butt;stroke-linejoin:miter;stroke-opacity:1"
         d="m 160.97323,116.28035 c -7.20577,-13.48193 -1.05039,-27.287136 8.2799,-31.334706 8.49441,-3.684891 11.32189,-5.635189 14.55407,-8.751836 5.28705,15.652316 4.88936,25.864722 -1.45208,34.170362 -7.30681,9.57007 -22.59691,9.18789 -22.59691,9.18789 16.18925,-9.8051 19.90232,-24.553599 21.44654,-39.476788 -2.68069,17.359048 -10.15703,28.473618 -20.23152,36.205078 z"
         id="path4-2-0-6-7-3-2-6"
         sodipodi:nodetypes="cscsccc"
         inkscape:label="leaf_08" />
      <path
         style="fill:#295554;fill-opacity:1;stroke:none;stroke-width:0.161752px;stroke-linecap:butt;stroke-linejoin:miter;stroke-opacity:1"
         d="m 131.57202,129.1025 c -6.93088,-8.64433 -4.38597,-19.30015 1.72163,-23.42757 5.56045,-3.75762 7.31484,-5.52401 9.20206,-8.175271 5.85326,10.446361 6.93134,17.775011 3.52073,24.537571 -3.92982,7.79207 -14.87388,9.55811 -14.87388,9.55811 10.22659,-9.14363 10.90577,-20.1459 10.01652,-30.98348 0.40432,12.72447 -3.44036,21.63949 -9.58706,28.49064 z"
         id="path4-2-0-6-7-3-2-6-1"
         sodipodi:nodetypes="cscsccc"
         inkscape:label="leaf_09" />
      <path
         style="fill:#295554;fill-opacity:1;stroke:none;stroke-width:0.196383px;stroke-linecap:butt;stroke-linejoin:miter;stroke-opacity:1"
         d="m 165.00228,136.78821 c 0.7073,-13.43337 11.62525,-21.03053 20.49455,-19.83359 8.07469,1.08976 11.09179,0.90737 14.9444,0.0307 -3.14005,14.19501 -8.08653,21.706 -16.64217,25.07624 -9.85812,3.88331 -21.20064,-3.36195 -21.20064,-3.36195 16.65526,-0.0186 26.16292,-9.43757 34.11648,-19.97498 -9.91794,11.85496 -20.60651,16.82448 -31.71262,18.06361 z"
         id="path4-2-0-6-7-3-2-6-1-4"
         sodipodi:nodetypes="cscsccc"
         inkscape:label="leaf_10" />
      <path
         style="fill:#295554;fill-opacity:1;stroke:none;stroke-width:0.265343px;stroke-linecap:butt;stroke-linejoin:miter;stroke-opacity:1"
         d="m 155.60481,171.31004 c 3.39636,-17.85553 19.39848,-26.03578 31.05439,-22.81611 10.61163,2.93129 14.68415,3.23724 20.00184,2.76607 -6.79218,18.43162 -14.78402,27.58534 -26.85278,30.53736 -13.90605,3.40143 -27.77024,-8.36665 -27.77024,-8.36665 22.30132,3.01203 36.74755,-7.86443 49.3171,-20.52159 -15.43969,14.0629 -30.65559,18.76712 -45.75031,18.40098 z"
         id="path4-2-0-6-7-3-2-6-1-4-1"
         sodipodi:nodetypes="cscsccc"
         inkscape:label="leaf_11" />
    </g>
    <g
       id="g4-7"
       transform="matrix(0.31574079,0,0,0.31574079,207.81675,-14.514006)">
      <path
         style="fill:#000000;fill-opacity:1;stroke:none;stroke-width:0.264583px;stroke-linecap:butt;stroke-linejoin:miter;stroke-opacity:1"
         d="m 65.926207,243.83729 c -1.211597,-1.32212 -0.373243,-4.21623 -1.241633,-5.78526 -1.881611,-3.39975 -6.836937,-4.79152 -9.038601,-7.99331 -1.468818,-2.13604 -2.391251,-4.48578 -2.540263,-7.07381 -0.137413,-2.38656 1.794786,-5.63431 1.426161,-7.09396 -0.392467,-1.55407 -1.501398,-1.11865 -3.164385,-4.89428 -1.227767,-2.7875 -0.947034,-15.08513 0.0083,-15.62244 1.627531,-0.91533 5.025599,2.76176 7.114119,4.37407 2.374754,-0.47653 6.127348,-0.23594 8.372444,0.21476 0.788009,-0.43081 6.27377,-5.62034 7.416103,-4.65936 1.225354,1.03082 0.593291,11.94074 0.01008,13.33724 -0.963255,2.30653 -2.8218,4.07813 -2.177821,4.84562 0.845276,1.0074 3.827271,-1.53558 5.6275,-2.53019 4.067619,-2.24732 11.794024,-1.21006 14.119127,-0.1661 12.557332,5.6382 14.814362,16.90573 14.617452,26.30369 -0.10515,5.01849 7.27217,6.5918 11.95801,4.40602 1.90744,-0.88975 3.7242,-1.79585 5.26677,-3.53691 1.40347,-1.58406 2.48818,-4.14054 4.50506,-5.03188 1.47015,-0.64971 3.74533,0.20224 4.18291,2.58892 0.44229,2.41234 -1.84543,5.24027 -3.60571,6.94802 -2.84359,2.75872 -6.95115,4.64008 -10.80706,5.55034 -3.82604,0.9032 -9.38052,0.97824 -12.61581,-0.52855 -2.64584,-1.23227 -3.35502,-2.97344 -5.19625,-3.14596 -2.201997,-0.20632 -22.319181,1.24788 -24.417788,-0.0386 -1.709859,-1.04816 0.290811,-3.82565 0.66443,-6.2735 0.175639,-1.15074 -0.332133,-3.10244 -1.494968,-3.15604 -2.399542,-0.1106 -0.873785,7.13708 -3.078888,9.16613 -1.486191,1.36754 -4.26871,1.5856 -5.909333,-0.20468 z"
         id="path1-8"
         inkscape:label="cat"
         sodipodi:nodetypes="sssssssccsssssssssssssssssss" />
      <path
         style="fill:#000000;fill-opacity:1;stroke:none;stroke-width:0.264583px;stroke-linecap:butt;stroke-linejoin:miter;stroke-opacity:1"
         d="m 62.954697,244.17785 c 0,0 0.150898,-4.23237 -1.079696,-5.73071 -1.090738,-1.32804 -3.488257,-2.3255 -6.976512,-5.81375 -20.7506,-1.98915 -32.003344,3.69787 -40.447147,11.37835 z"
         id="path2-4"
         sodipodi:nodetypes="csccc"
         inkscape:label="tree_root" />
      <path
         style="display:inline;fill:#000000;fill-opacity:1;stroke:none;stroke-width:0.264583px;stroke-linecap:butt;stroke-linejoin:miter;stroke-opacity:1"
         d="m 95.222134,209.40328 c 12.778156,7.99404 14.174996,18.5183 13.748216,27.63648 -0.16973,3.62615 7.34575,4.47858 11.40154,0.77354 4.37952,-4.00076 4.28042,-6.95261 7.84938,-7.41986 3.16906,-0.4149 6.54666,1.49297 6.72693,4.68398 0.29096,5.15024 -4.51787,9.14729 -4.51787,9.14729 l 68.77446,-0.15186 c -8.59521,-8.72996 -24.77447,-12.03474 -47.32873,-11.80012 -13.43709,0.13978 -23.241,-7.49517 -26.43342,-17.09397 -1.68428,-5.0642 -7.72099,-20.07393 0,-33.59232 3.27067,-5.7265 8.7901,-9.05432 18.44644,-8.84358 l 14.67605,-0.0831 1.38097,-4.06229 -23.90639,-1.40947 c 30.31533,-5.4534 25.66511,-6.42181 45.23121,-12.40999 -44.21239,11.36332 -47.29504,6.51964 -58.88213,14.12317 0.21587,-23.34783 18.43967,-20.05139 45.52069,-30.81612 -13.68965,3.00034 -23.21716,3.50162 -33.63751,7.07583 l 33.4881,-30.15659 -37.96567,27.13124 c 1.7058,-3.50197 3.71772,-7.69739 3.55217,-13.93101 -4.65767,9.18736 -11.21882,21.59632 -17.06547,23.31322 -2.82987,-3.96013 -10.08079,-23.48593 20.29967,-57.928241 -8.54699,6.653851 -16.56296,13.562091 -29.39241,38.954971 l -1.43797,-0.64773 c 4.04197,-12.16781 2.65893,-18.36577 1.05121,-25.67658 0.16076,8.16654 -1.65413,16.03538 -3.46912,22.00105 -4.317035,-15.97183 -11.149825,-26.45188 -21.001967,-32.46051 7.631636,9.99462 20.949757,21.77782 16.78781,52.34247 -0.151458,0.84842 -0.47477,1.65387 -1.504326,2.28275 -7.418938,-3.88175 -10.50633,-12.76143 -15.354733,-19.60918 0.522517,4.17075 1.673575,7.83866 3.303006,11.12388 l -38.80556,-27.33522 34.05278,29.67008 -34.050335,-6.48021 c 21.24758,10.79635 48.879362,5.68919 48.379925,31.61573 -17.321613,-10.4943 -21.131432,-3.86693 -61.105438,-14.50751 15.278735,4.0528 20.591314,9.21295 45.836205,12.15839 l -22.90731,1.49252 1.295468,3.67553 c 10.112782,1.40452 23.552354,-1.75483 30.277505,4.2972 10.027392,9.02375 8.112049,21.04773 6.686624,32.91609 z"
         id="path3-5"
         sodipodi:nodetypes="cssssccsssccccccccccccccccccccccccccccccsc"
         inkscape:label="tree_body" />
      <path
         style="fill:#295554;fill-opacity:1;stroke:none;stroke-width:0.264583px;stroke-linecap:butt;stroke-linejoin:miter;stroke-opacity:1"
         d="M 59.315106,172.4249 C 57.134473,154.43305 41.76339,145.22081 29.951193,147.64176 c -10.753928,2.20404 -14.826078,2.23518 -20.0849179,1.40947 5.5204159,18.79291 12.8569759,28.43601 24.6656869,32.18285 13.606471,4.31725 28.189359,-6.46007 28.189359,-6.46007 -22.389119,1.49991 -36.031326,-10.29022 -47.686997,-23.72604 14.416726,15.02695 29.238917,20.72818 44.280782,21.37693 z"
         id="path4-0"
         sodipodi:nodetypes="cscsccc"
         inkscape:label="leaf_01" />
      <path
         style="fill:#295554;fill-opacity:1;stroke:none;stroke-width:0.199086px;stroke-linecap:butt;stroke-linejoin:miter;stroke-opacity:1"
         d="m 50.555611,136.80579 c 1.272807,-13.57755 -8.556497,-22.80828 -17.628721,-22.91652 -8.259429,-0.0985 -11.258557,-0.72662 -14.993251,-2.17442 1.054792,14.70045 4.907636,22.96361 12.991318,27.60629 9.314341,5.34949 21.759627,-0.24358 21.759627,-0.24358 -16.701927,-2.47628 -24.847932,-13.3261 -31.270209,-25.06838 8.198051,13.35359 18.185041,19.91503 29.141236,22.79661 z"
         id="path4-2-3"
         sodipodi:nodetypes="cscsccc"
         inkscape:label="leaf_02" />
      <path
         style="fill:#295554;fill-opacity:1;stroke:none;stroke-width:0.199086px;stroke-linecap:butt;stroke-linejoin:miter;stroke-opacity:1"
         d="M 57.645808,114.23342 C 61.86431,101.26523 54.297819,90.104142 45.470031,88.009597 37.433129,86.102746 34.644668,84.832396 31.318237,82.601047 c -2.193706,14.574069 -0.246157,23.480883 6.623035,29.782833 7.914956,7.26137 21.283667,4.53279 21.283667,4.53279 C 43.472216,110.83901 37.903032,98.467256 34.2113,85.602656 39.282352,100.42868 47.587892,109.01998 57.645808,114.23342 Z"
         id="path4-2-0-61"
         sodipodi:nodetypes="cscsccc"
         inkscape:label="leaf_03" />
      <path
         style="fill:#295554;fill-opacity:1;stroke:none;stroke-width:0.287737px;stroke-linecap:butt;stroke-linejoin:miter;stroke-opacity:1"
         d="M 83.04063,91.68611 C 89.137596,72.943293 78.20181,56.812267 65.443082,53.785039 53.827414,51.029083 49.797275,49.193057 44.989612,45.968107 41.819067,67.031891 44.633843,79.904829 54.561829,89.012985 66.001249,99.507783 85.322935,95.564189 85.322935,95.564189 62.555656,86.780197 54.506561,68.899411 49.170932,50.306307 56.500081,71.734235 68.504008,84.151169 83.04063,91.68611 Z"
         id="path4-2-0-6-0"
         sodipodi:nodetypes="cscsccc"
         inkscape:label="leaf_04" />
      <path
         style="fill:#295554;fill-opacity:1;stroke:none;stroke-width:0.169047px;stroke-linecap:butt;stroke-linejoin:miter;stroke-opacity:1"
         d="m 85.367803,131.26464 c 6.789312,-9.38027 3.583902,-20.37202 -3.004043,-24.36569 -5.997742,-3.63585 -7.920027,-5.38927 -10.026562,-8.059526 -5.571618,11.205786 -6.319392,18.911186 -2.410919,25.794436 4.5035,7.93114 16.018242,9.21077 16.018242,9.21077 -11.145894,-9.01754 -12.421671,-20.46704 -12.051775,-31.82545 0.233499,13.30301 4.705983,22.4107 11.475057,29.24546 z"
         id="path4-2-0-6-7-6"
         sodipodi:nodetypes="cscsccc"
         inkscape:label="leaf_05" />
      <path
         style="fill:#295554;fill-opacity:1;stroke:none;stroke-width:0.169047px;stroke-linecap:butt;stroke-linejoin:miter;stroke-opacity:1"
         d="m 109.22358,109.22396 c 10.71757,-4.38385 13.7965,-15.411698 10.30883,-22.280932 -3.17526,-6.253806 -3.88252,-8.757693 -4.26236,-12.137551 -10.64681,6.577071 -15.348893,12.727091 -15.662191,20.636401 -0.360983,9.113402 8.743841,16.277822 8.743841,16.277822 -4.70743,-13.542048 0.25208,-23.940221 6.56129,-33.392426 -6.82307,11.422358 -7.83139,21.518718 -5.68941,30.896686 z"
         id="path4-2-0-6-7-3-3"
         sodipodi:nodetypes="cscsccc"
         inkscape:label="leaf_06" />
      <path
         style="fill:#295554;fill-opacity:1;stroke:none;stroke-width:0.265282px;stroke-linecap:butt;stroke-linejoin:miter;stroke-opacity:1"
         d="m 134.26124,91.397776 c -6.94153,-16.793327 1.95971,-32.401092 13.47146,-36.094011 10.48043,-3.361999 14.05393,-5.337186 18.24299,-8.644549 4.4172,19.135501 2.74832,31.169051 -5.72762,40.249566 -9.76627,10.462914 -27.80801,8.216503 -27.80801,8.216503 20.30084,-9.698553 26.4238,-26.708755 30.00171,-44.180108 -5.2081,20.219348 -15.35615,32.489358 -28.18053,40.452599 z"
         id="path4-2-0-6-7-3-2-2"
         sodipodi:nodetypes="cscsccc"
         inkscape:label="leaf_07" />
      <path
         style="fill:#295554;fill-opacity:1;stroke:none;stroke-width:0.223169px;stroke-linecap:butt;stroke-linejoin:miter;stroke-opacity:1"
         d="m 160.97323,116.28035 c -7.20577,-13.48193 -1.05039,-27.287136 8.2799,-31.334706 8.49441,-3.684891 11.32189,-5.635189 14.55407,-8.751836 5.28705,15.652316 4.88936,25.864722 -1.45208,34.170362 -7.30681,9.57007 -22.59691,9.18789 -22.59691,9.18789 16.18925,-9.8051 19.90232,-24.553599 21.44654,-39.476788 -2.68069,17.359048 -10.15703,28.473618 -20.23152,36.205078 z"
         id="path4-2-0-6-7-3-2-6-0"
         sodipodi:nodetypes="cscsccc"
         inkscape:label="leaf_08" />
      <path
         style="fill:#295554;fill-opacity:1;stroke:none;stroke-width:0.161752px;stroke-linecap:butt;stroke-linejoin:miter;stroke-opacity:1"
         d="m 131.57202,129.1025 c -6.93088,-8.64433 -4.38597,-19.30015 1.72163,-23.42757 5.56045,-3.75762 7.31484,-5.52401 9.20206,-8.175271 5.85326,10.446361 6.93134,17.775011 3.52073,24.537571 -3.92982,7.79207 -14.87388,9.55811 -14.87388,9.55811 10.22659,-9.14363 10.90577,-20.1459 10.01652,-30.98348 0.40432,12.72447 -3.44036,21.63949 -9.58706,28.49064 z"
         id="path4-2-0-6-7-3-2-6-1-61"
         sodipodi:nodetypes="cscsccc"
         inkscape:label="leaf_09" />
      <path
         style="fill:#295554;fill-opacity:1;stroke:none;stroke-width:0.196383px;stroke-linecap:butt;stroke-linejoin:miter;stroke-opacity:1"
         d="m 165.00228,136.78821 c 0.7073,-13.43337 11.62525,-21.03053 20.49455,-19.83359 8.07469,1.08976 11.09179,0.90737 14.9444,0.0307 -3.14005,14.19501 -8.08653,21.706 -16.64217,25.07624 -9.85812,3.88331 -21.20064,-3.36195 -21.20064,-3.36195 16.65526,-0.0186 26.16292,-9.43757 34.11648,-19.97498 -9.91794,11.85496 -20.60651,16.82448 -31.71262,18.06361 z"
         id="path4-2-0-6-7-3-2-6-1-4-5"
         sodipodi:nodetypes="cscsccc"
         inkscape:label="leaf_10" />
      <path
         style="fill:#295554;fill-opacity:1;stroke:none;stroke-width:0.265343px;stroke-linecap:butt;stroke-linejoin:miter;stroke-opacity:1"
         d="m 155.60481,171.31004 c 3.39636,-17.85553 19.39848,-26.03578 31.05439,-22.81611 10.61163,2.93129 14.68415,3.23724 20.00184,2.76607 -6.79218,18.43162 -14.78402,27.58534 -26.85278,30.53736 -13.90605,3.40143 -27.77024,-8.36665 -27.77024,-8.36665 22.30132,3.01203 36.74755,-7.86443 49.3171,-20.52159 -15.43969,14.0629 -30.65559,18.76712 -45.75031,18.40098 z"
         id="path4-2-0-6-7-3-2-6-1-4-1-5"
         sodipodi:nodetypes="cscsccc"
         inkscape:label="leaf_11" />
    </g>
    <g
       id="g4-0"
       transform="matrix(0.31574079,0,0,0.31574079,-1.319408,58.322183)">
      <path
         style="fill:#ffffff;fill-opacity:1;stroke:none;stroke-width:0.264583px;stroke-linecap:butt;stroke-linejoin:miter;stroke-opacity:1"
         d="m 65.926207,243.83729 c -1.211597,-1.32212 -0.373243,-4.21623 -1.241633,-5.78526 -1.881611,-3.39975 -6.836937,-4.79152 -9.038601,-7.99331 -1.468818,-2.13604 -2.391251,-4.48578 -2.540263,-7.07381 -0.137413,-2.38656 1.794786,-5.63431 1.426161,-7.09396 -0.392467,-1.55407 -1.501398,-1.11865 -3.164385,-4.89428 -1.227767,-2.7875 -0.947034,-15.08513 0.0083,-15.62244 1.627531,-0.91533 5.025599,2.76176 7.114119,4.37407 2.374754,-0.47653 6.127348,-0.23594 8.372444,0.21476 0.788009,-0.43081 6.27377,-5.62034 7.416103,-4.65936 1.225354,1.03082 0.593291,11.94074 0.01008,13.33724 -0.963255,2.30653 -2.8218,4.07813 -2.177821,4.84562 0.845276,1.0074 3.827271,-1.53558 5.6275,-2.53019 4.067619,-2.24732 11.794024,-1.21006 14.119127,-0.1661 12.557332,5.6382 14.814362,16.90573 14.617452,26.30369 -0.10515,5.01849 7.27217,6.5918 11.95801,4.40602 1.90744,-0.88975 3.7242,-1.79585 5.26677,-3.53691 1.40347,-1.58406 2.48818,-4.14054 4.50506,-5.03188 1.47015,-0.64971 3.74533,0.20224 4.18291,2.58892 0.44229,2.41234 -1.84543,5.24027 -3.60571,6.94802 -2.84359,2.75872 -6.95115,4.64008 -10.80706,5.55034 -3.82604,0.9032 -9.38052,0.97824 -12.61581,-0.52855 -2.64584,-1.23227 -3.35502,-2.97344 -5.19625,-3.14596 -2.201997,-0.20632 -22.319181,1.24788 -24.417788,-0.0386 -1.709859,-1.04816 0.290811,-3.82565 0.66443,-6.2735 0.175639,-1.15074 -0.332133,-3.10244 -1.494968,-3.15604 -2.399542,-0.1106 -0.873785,7.13708 -3.078888,9.16613 -1.486191,1.36754 -4.26871,1.5856 -5.909333,-0.20468 z"
         id="path1-2"
         inkscape:label="cat"
         sodipodi:nodetypes="sssssssccsssssssssssssssssss" />
      <path
         style="fill:#ffffff;fill-opacity:1;stroke:none;stroke-width:0.264583px;stroke-linecap:butt;stroke-linejoin:miter;stroke-opacity:1"
         d="m 62.954697,244.17785 c 0,0 0.150898,-4.23237 -1.079696,-5.73071 -1.090738,-1.32804 -3.488257,-2.3255 -6.976512,-5.81375 -20.7506,-1.98915 -32.003344,3.69787 -40.447147,11.37835 z"
         id="path2-3"
         sodipodi:nodetypes="csccc"
         inkscape:label="tree_root" />
      <path
         style="display:inline;fill:#ffffff;fill-opacity:1;stroke:none;stroke-width:0.264583px;stroke-linecap:butt;stroke-linejoin:miter;stroke-opacity:1"
         d="m 95.222134,209.40328 c 12.778156,7.99404 14.174996,18.5183 13.748216,27.63648 -0.16973,3.62615 7.34575,4.47858 11.40154,0.77354 4.37952,-4.00076 4.28042,-6.95261 7.84938,-7.41986 3.16906,-0.4149 6.54666,1.49297 6.72693,4.68398 0.29096,5.15024 -4.51787,9.14729 -4.51787,9.14729 l 68.77446,-0.15186 c -8.59521,-8.72996 -24.77447,-12.03474 -47.32873,-11.80012 -13.43709,0.13978 -23.241,-7.49517 -26.43342,-17.09397 -1.68428,-5.0642 -7.72099,-20.07393 0,-33.59232 3.27067,-5.7265 8.7901,-9.05432 18.44644,-8.84358 l 14.67605,-0.0831 1.38097,-4.06229 -23.90639,-1.40947 c 30.31533,-5.4534 25.66511,-6.42181 45.23121,-12.40999 -44.21239,11.36332 -47.29504,6.51964 -58.88213,14.12317 0.21587,-23.34783 18.43967,-20.05139 45.52069,-30.81612 -13.68965,3.00034 -23.21716,3.50162 -33.63751,7.07583 l 33.4881,-30.15659 -37.96567,27.13124 c 1.7058,-3.50197 3.71772,-7.69739 3.55217,-13.93101 -4.65767,9.18736 -11.21882,21.59632 -17.06547,23.31322 -2.82987,-3.96013 -10.08079,-23.48593 20.29967,-57.928241 -8.54699,6.653851 -16.56296,13.562091 -29.39241,38.954971 l -1.43797,-0.64773 c 4.04197,-12.16781 2.65893,-18.36577 1.05121,-25.67658 0.16076,8.16654 -1.65413,16.03538 -3.46912,22.00105 -4.317035,-15.97183 -11.149825,-26.45188 -21.001967,-32.46051 7.631636,9.99462 20.949757,21.77782 16.78781,52.34247 -0.151458,0.84842 -0.47477,1.65387 -1.504326,2.28275 -7.418938,-3.88175 -10.50633,-12.76143 -15.354733,-19.60918 0.522517,4.17075 1.673575,7.83866 3.303006,11.12388 l -38.80556,-27.33522 34.05278,29.67008 -34.050335,-6.48021 c 21.24758,10.79635 48.879362,5.68919 48.379925,31.61573 -17.321613,-10.4943 -21.131432,-3.86693 -61.105438,-14.50751 15.278735,4.0528 20.591314,9.21295 45.836205,12.15839 l -22.90731,1.49252 1.295468,3.67553 c 10.112782,1.40452 23.552354,-1.75483 30.277505,4.2972 10.027392,9.02375 8.112049,21.04773 6.686624,32.91609 z"
         id="path3-7"
         sodipodi:nodetypes="cssssccsssccccccccccccccccccccccccccccccsc"
         inkscape:label="tree_body" />
      <path
         style="fill:#ffffff;fill-opacity:1;stroke:none;stroke-width:0.264583px;stroke-linecap:butt;stroke-linejoin:miter;stroke-opacity:1"
         d="M 59.315106,172.4249 C 57.134473,154.43305 41.76339,145.22081 29.951193,147.64176 c -10.753928,2.20404 -14.826078,2.23518 -20.0849179,1.40947 5.5204159,18.79291 12.8569759,28.43601 24.6656869,32.18285 13.606471,4.31725 28.189359,-6.46007 28.189359,-6.46007 -22.389119,1.49991 -36.031326,-10.29022 -47.686997,-23.72604 14.416726,15.02695 29.238917,20.72818 44.280782,21.37693 z"
         id="path4-5"
         sodipodi:nodetypes="cscsccc"
         inkscape:label="leaf_01" />
      <path
         style="fill:#ffffff;fill-opacity:1;stroke:none;stroke-width:0.199086px;stroke-linecap:butt;stroke-linejoin:miter;stroke-opacity:1"
         d="m 50.555611,136.80579 c 1.272807,-13.57755 -8.556497,-22.80828 -17.628721,-22.91652 -8.259429,-0.0985 -11.258557,-0.72662 -14.993251,-2.17442 1.054792,14.70045 4.907636,22.96361 12.991318,27.60629 9.314341,5.34949 21.759627,-0.24358 21.759627,-0.24358 -16.701927,-2.47628 -24.847932,-13.3261 -31.270209,-25.06838 8.198051,13.35359 18.185041,19.91503 29.141236,22.79661 z"
         id="path4-2-9"
         sodipodi:nodetypes="cscsccc"
         inkscape:label="leaf_02" />
      <path
         style="fill:#ffffff;fill-opacity:1;stroke:none;stroke-width:0.199086px;stroke-linecap:butt;stroke-linejoin:miter;stroke-opacity:1"
         d="M 57.645808,114.23342 C 61.86431,101.26523 54.297819,90.104142 45.470031,88.009597 37.433129,86.102746 34.644668,84.832396 31.318237,82.601047 c -2.193706,14.574069 -0.246157,23.480883 6.623035,29.782833 7.914956,7.26137 21.283667,4.53279 21.283667,4.53279 C 43.472216,110.83901 37.903032,98.467256 34.2113,85.602656 39.282352,100.42868 47.587892,109.01998 57.645808,114.23342 Z"
         id="path4-2-0-2"
         sodipodi:nodetypes="cscsccc"
         inkscape:label="leaf_03" />
      <path
         style="fill:#ffffff;fill-opacity:1;stroke:none;stroke-width:0.287737px;stroke-linecap:butt;stroke-linejoin:miter;stroke-opacity:1"
         d="M 83.04063,91.68611 C 89.137596,72.943293 78.20181,56.812267 65.443082,53.785039 53.827414,51.029083 49.797275,49.193057 44.989612,45.968107 41.819067,67.031891 44.633843,79.904829 54.561829,89.012985 66.001249,99.507783 85.322935,95.564189 85.322935,95.564189 62.555656,86.780197 54.506561,68.899411 49.170932,50.306307 56.500081,71.734235 68.504008,84.151169 83.04063,91.68611 Z"
         id="path4-2-0-6-2"
         sodipodi:nodetypes="cscsccc"
         inkscape:label="leaf_04" />
      <path
         style="fill:#ffffff;fill-opacity:1;stroke:none;stroke-width:0.169047px;stroke-linecap:butt;stroke-linejoin:miter;stroke-opacity:1"
         d="m 85.367803,131.26464 c 6.789312,-9.38027 3.583902,-20.37202 -3.004043,-24.36569 -5.997742,-3.63585 -7.920027,-5.38927 -10.026562,-8.059526 -5.571618,11.205786 -6.319392,18.911186 -2.410919,25.794436 4.5035,7.93114 16.018242,9.21077 16.018242,9.21077 -11.145894,-9.01754 -12.421671,-20.46704 -12.051775,-31.82545 0.233499,13.30301 4.705983,22.4107 11.475057,29.24546 z"
         id="path4-2-0-6-7-8"
         sodipodi:nodetypes="cscsccc"
         inkscape:label="leaf_05" />
      <path
         style="fill:#ffffff;fill-opacity:1;stroke:none;stroke-width:0.169047px;stroke-linecap:butt;stroke-linejoin:miter;stroke-opacity:1"
         d="m 109.22358,109.22396 c 10.71757,-4.38385 13.7965,-15.411698 10.30883,-22.280932 -3.17526,-6.253806 -3.88252,-8.757693 -4.26236,-12.137551 -10.64681,6.577071 -15.348893,12.727091 -15.662191,20.636401 -0.360983,9.113402 8.743841,16.277822 8.743841,16.277822 -4.70743,-13.542048 0.25208,-23.940221 6.56129,-33.392426 -6.82307,11.422358 -7.83139,21.518718 -5.68941,30.896686 z"
         id="path4-2-0-6-7-3-9"
         sodipodi:nodetypes="cscsccc"
         inkscape:label="leaf_06" />
      <path
         style="fill:#ffffff;fill-opacity:1;stroke:none;stroke-width:0.265282px;stroke-linecap:butt;stroke-linejoin:miter;stroke-opacity:1"
         d="m 134.26124,91.397776 c -6.94153,-16.793327 1.95971,-32.401092 13.47146,-36.094011 10.48043,-3.361999 14.05393,-5.337186 18.24299,-8.644549 4.4172,19.135501 2.74832,31.169051 -5.72762,40.249566 -9.76627,10.462914 -27.80801,8.216503 -27.80801,8.216503 20.30084,-9.698553 26.4238,-26.708755 30.00171,-44.180108 -5.2081,20.219348 -15.35615,32.489358 -28.18053,40.452599 z"
         id="path4-2-0-6-7-3-2-7"
         sodipodi:nodetypes="cscsccc"
         inkscape:label="leaf_07" />
      <path
         style="fill:#ffffff;fill-opacity:1;stroke:none;stroke-width:0.223169px;stroke-linecap:butt;stroke-linejoin:miter;stroke-opacity:1"
         d="m 160.97323,116.28035 c -7.20577,-13.48193 -1.05039,-27.287136 8.2799,-31.334706 8.49441,-3.684891 11.32189,-5.635189 14.55407,-8.751836 5.28705,15.652316 4.88936,25.864722 -1.45208,34.170362 -7.30681,9.57007 -22.59691,9.18789 -22.59691,9.18789 16.18925,-9.8051 19.90232,-24.553599 21.44654,-39.476788 -2.68069,17.359048 -10.15703,28.473618 -20.23152,36.205078 z"
         id="path4-2-0-6-7-3-2-6-3"
         sodipodi:nodetypes="cscsccc"
         inkscape:label="leaf_08" />
      <path
         style="fill:#ffffff;fill-opacity:1;stroke:none;stroke-width:0.161752px;stroke-linecap:butt;stroke-linejoin:miter;stroke-opacity:1"
         d="m 131.57202,129.1025 c -6.93088,-8.64433 -4.38597,-19.30015 1.72163,-23.42757 5.56045,-3.75762 7.31484,-5.52401 9.20206,-8.175271 5.85326,10.446361 6.93134,17.775011 3.52073,24.537571 -3.92982,7.79207 -14.87388,9.55811 -14.87388,9.55811 10.22659,-9.14363 10.90577,-20.1459 10.01652,-30.98348 0.40432,12.72447 -3.44036,21.63949 -9.58706,28.49064 z"
         id="path4-2-0-6-7-3-2-6-1-6"
         sodipodi:nodetypes="cscsccc"
         inkscape:label="leaf_09" />
      <path
         style="fill:#ffffff;fill-opacity:1;stroke:none;stroke-width:0.196383px;stroke-linecap:butt;stroke-linejoin:miter;stroke-opacity:1"
         d="m 165.00228,136.78821 c 0.7073,-13.43337 11.62525,-21.03053 20.49455,-19.83359 8.07469,1.08976 11.09179,0.90737 14.9444,0.0307 -3.14005,14.19501 -8.08653,21.706 -16.64217,25.07624 -9.85812,3.88331 -21.20064,-3.36195 -21.20064,-3.36195 16.65526,-0.0186 26.16292,-9.43757 34.11648,-19.97498 -9.91794,11.85496 -20.60651,16.82448 -31.71262,18.06361 z"
         id="path4-2-0-6-7-3-2-6-1-4-12"
         sodipodi:nodetypes="cscsccc"
         inkscape:label="leaf_10" />
      <path
         style="fill:#ffffff;fill-opacity:1;stroke:none;stroke-width:0.265343px;stroke-linecap:butt;stroke-linejoin:miter;stroke-opacity:1"
         d="m 155.60481,171.31004 c 3.39636,-17.85553 19.39848,-26.03578 31.05439,-22.81611 10.61163,2.93129 14.68415,3.23724 20.00184,2.76607 -6.79218,18.43162 -14.78402,27.58534 -26.85278,30.53736 -13.90605,3.40143 -27.77024,-8.36665 -27.77024,-8.36665 22.30132,3.01203 36.74755,-7.86443 49.3171,-20.52159 -15.43969,14.0629 -30.65559,18.76712 -45.75031,18.40098 z"
         id="path4-2-0-6-7-3-2-6-1-4-1-9"
         sodipodi:nodetypes="cscsccc"
         inkscape:label="leaf_11" />
    </g>
    <g
       id="g4-0-3"
       transform="matrix(0.31574079,0,0,0.31574079,207.69523,58.750627)">
      <path
         style="fill:#ffffff;fill-opacity:1;stroke:none;stroke-width:0.264583px;stroke-linecap:butt;stroke-linejoin:miter;stroke-opacity:1"
         d="m 65.926207,243.83729 c -1.211597,-1.32212 -0.373243,-4.21623 -1.241633,-5.78526 -1.881611,-3.39975 -6.836937,-4.79152 -9.038601,-7.99331 -1.468818,-2.13604 -2.391251,-4.48578 -2.540263,-7.07381 -0.137413,-2.38656 1.794786,-5.63431 1.426161,-7.09396 -0.392467,-1.55407 -1.501398,-1.11865 -3.164385,-4.89428 -1.227767,-2.7875 -0.947034,-15.08513 0.0083,-15.62244 1.627531,-0.91533 5.025599,2.76176 7.114119,4.37407 2.374754,-0.47653 6.127348,-0.23594 8.372444,0.21476 0.788009,-0.43081 6.27377,-5.62034 7.416103,-4.65936 1.225354,1.03082 0.593291,11.94074 0.01008,13.33724 -0.963255,2.30653 -2.8218,4.07813 -2.177821,4.84562 0.845276,1.0074 3.827271,-1.53558 5.6275,-2.53019 4.067619,-2.24732 11.794024,-1.21006 14.119127,-0.1661 12.557332,5.6382 14.814362,16.90573 14.617452,26.30369 -0.10515,5.01849 7.27217,6.5918 11.95801,4.40602 1.90744,-0.88975 3.7242,-1.79585 5.26677,-3.53691 1.40347,-1.58406 2.48818,-4.14054 4.50506,-5.03188 1.47015,-0.64971 3.74533,0.20224 4.18291,2.58892 0.44229,2.41234 -1.84543,5.24027 -3.60571,6.94802 -2.84359,2.75872 -6.95115,4.64008 -10.80706,5.55034 -3.82604,0.9032 -9.38052,0.97824 -12.61581,-0.52855 -2.64584,-1.23227 -3.35502,-2.97344 -5.19625,-3.14596 -2.201997,-0.20632 -22.319181,1.24788 -24.417788,-0.0386 -1.709859,-1.04816 0.290811,-3.82565 0.66443,-6.2735 0.175639,-1.15074 -0.332133,-3.10244 -1.494968,-3.15604 -2.399542,-0.1106 -0.873785,7.13708 -3.078888,9.16613 -1.486191,1.36754 -4.26871,1.5856 -5.909333,-0.20468 z"
         id="path1-2-1"
         inkscape:label="cat"
         sodipodi:nodetypes="sssssssccsssssssssssssssssss" />
      <path
         style="fill:#ffffff;fill-opacity:1;stroke:none;stroke-width:0.264583px;stroke-linecap:butt;stroke-linejoin:miter;stroke-opacity:1"
         d="m 62.954697,244.17785 c 0,0 0.150898,-4.23237 -1.079696,-5.73071 -1.090738,-1.32804 -3.488257,-2.3255 -6.976512,-5.81375 -20.7506,-1.98915 -32.003344,3.69787 -40.447147,11.37835 z"
         id="path2-3-4"
         sodipodi:nodetypes="csccc"
         inkscape:label="tree_root" />
      <path
         style="display:inline;fill:#ffffff;fill-opacity:1;stroke:none;stroke-width:0.264583px;stroke-linecap:butt;stroke-linejoin:miter;stroke-opacity:1"
         d="m 95.222134,209.40328 c 12.778156,7.99404 14.174996,18.5183 13.748216,27.63648 -0.16973,3.62615 7.34575,4.47858 11.40154,0.77354 4.37952,-4.00076 4.28042,-6.95261 7.84938,-7.41986 3.16906,-0.4149 6.54666,1.49297 6.72693,4.68398 0.29096,5.15024 -4.51787,9.14729 -4.51787,9.14729 l 68.77446,-0.15186 c -8.59521,-8.72996 -24.77447,-12.03474 -47.32873,-11.80012 -13.43709,0.13978 -23.241,-7.49517 -26.43342,-17.09397 -1.68428,-5.0642 -7.72099,-20.07393 0,-33.59232 3.27067,-5.7265 8.7901,-9.05432 18.44644,-8.84358 l 14.67605,-0.0831 1.38097,-4.06229 -23.90639,-1.40947 c 30.31533,-5.4534 25.66511,-6.42181 45.23121,-12.40999 -44.21239,11.36332 -47.29504,6.51964 -58.88213,14.12317 0.21587,-23.34783 18.43967,-20.05139 45.52069,-30.81612 -13.68965,3.00034 -23.21716,3.50162 -33.63751,7.07583 l 33.4881,-30.15659 -37.96567,27.13124 c 1.7058,-3.50197 3.71772,-7.69739 3.55217,-13.93101 -4.65767,9.18736 -11.21882,21.59632 -17.06547,23.31322 -2.82987,-3.96013 -10.08079,-23.48593 20.29967,-57.928241 -8.54699,6.653851 -16.56296,13.562091 -29.39241,38.954971 l -1.43797,-0.64773 c 4.04197,-12.16781 2.65893,-18.36577 1.05121,-25.67658 0.16076,8.16654 -1.65413,16.03538 -3.46912,22.00105 -4.317035,-15.97183 -11.149825,-26.45188 -21.001967,-32.46051 7.631636,9.99462 20.949757,21.77782 16.78781,52.34247 -0.151458,0.84842 -0.47477,1.65387 -1.504326,2.28275 -7.418938,-3.88175 -10.50633,-12.76143 -15.354733,-19.60918 0.522517,4.17075 1.673575,7.83866 3.303006,11.12388 l -38.80556,-27.33522 34.05278,29.67008 -34.050335,-6.48021 c 21.24758,10.79635 48.879362,5.68919 48.379925,31.61573 -17.321613,-10.4943 -21.131432,-3.86693 -61.105438,-14.50751 15.278735,4.0528 20.591314,9.21295 45.836205,12.15839 l -22.90731,1.49252 1.295468,3.67553 c 10.112782,1.40452 23.552354,-1.75483 30.277505,4.2972 10.027392,9.02375 8.112049,21.04773 6.686624,32.91609 z"
         id="path3-7-9"
         sodipodi:nodetypes="cssssccsssccccccccccccccccccccccccccccccsc"
         inkscape:label="tree_body" />
      <path
         style="fill:#ffffff;fill-opacity:1;stroke:none;stroke-width:0.264583px;stroke-linecap:butt;stroke-linejoin:miter;stroke-opacity:1"
         d="M 59.315106,172.4249 C 57.134473,154.43305 41.76339,145.22081 29.951193,147.64176 c -10.753928,2.20404 -14.826078,2.23518 -20.0849179,1.40947 5.5204159,18.79291 12.8569759,28.43601 24.6656869,32.18285 13.606471,4.31725 28.189359,-6.46007 28.189359,-6.46007 -22.389119,1.49991 -36.031326,-10.29022 -47.686997,-23.72604 14.416726,15.02695 29.238917,20.72818 44.280782,21.37693 z"
         id="path4-5-2"
         sodipodi:nodetypes="cscsccc"
         inkscape:label="leaf_01" />
      <path
         style="fill:#ffffff;fill-opacity:1;stroke:none;stroke-width:0.199086px;stroke-linecap:butt;stroke-linejoin:miter;stroke-opacity:1"
         d="m 50.555611,136.80579 c 1.272807,-13.57755 -8.556497,-22.80828 -17.628721,-22.91652 -8.259429,-0.0985 -11.258557,-0.72662 -14.993251,-2.17442 1.054792,14.70045 4.907636,22.96361 12.991318,27.60629 9.314341,5.34949 21.759627,-0.24358 21.759627,-0.24358 -16.701927,-2.47628 -24.847932,-13.3261 -31.270209,-25.06838 8.198051,13.35359 18.185041,19.91503 29.141236,22.79661 z"
         id="path4-2-9-0"
         sodipodi:nodetypes="cscsccc"
         inkscape:label="leaf_02" />
      <path
         style="fill:#ffffff;fill-opacity:1;stroke:none;stroke-width:0.199086px;stroke-linecap:butt;stroke-linejoin:miter;stroke-opacity:1"
         d="M 57.645808,114.23342 C 61.86431,101.26523 54.297819,90.104142 45.470031,88.009597 37.433129,86.102746 34.644668,84.832396 31.318237,82.601047 c -2.193706,14.574069 -0.246157,23.480883 6.623035,29.782833 7.914956,7.26137 21.283667,4.53279 21.283667,4.53279 C 43.472216,110.83901 37.903032,98.467256 34.2113,85.602656 39.282352,100.42868 47.587892,109.01998 57.645808,114.23342 Z"
         id="path4-2-0-2-6"
         sodipodi:nodetypes="cscsccc"
         inkscape:label="leaf_03" />
      <path
         style="fill:#ffffff;fill-opacity:1;stroke:none;stroke-width:0.287737px;stroke-linecap:butt;stroke-linejoin:miter;stroke-opacity:1"
         d="M 83.04063,91.68611 C 89.137596,72.943293 78.20181,56.812267 65.443082,53.785039 53.827414,51.029083 49.797275,49.193057 44.989612,45.968107 41.819067,67.031891 44.633843,79.904829 54.561829,89.012985 66.001249,99.507783 85.322935,95.564189 85.322935,95.564189 62.555656,86.780197 54.506561,68.899411 49.170932,50.306307 56.500081,71.734235 68.504008,84.151169 83.04063,91.68611 Z"
         id="path4-2-0-6-2-8"
         sodipodi:nodetypes="cscsccc"
         inkscape:label="leaf_04" />
      <path
         style="fill:#ffffff;fill-opacity:1;stroke:none;stroke-width:0.169047px;stroke-linecap:butt;stroke-linejoin:miter;stroke-opacity:1"
         d="m 85.367803,131.26464 c 6.789312,-9.38027 3.583902,-20.37202 -3.004043,-24.36569 -5.997742,-3.63585 -7.920027,-5.38927 -10.026562,-8.059526 -5.571618,11.205786 -6.319392,18.911186 -2.410919,25.794436 4.5035,7.93114 16.018242,9.21077 16.018242,9.21077 -11.145894,-9.01754 -12.421671,-20.46704 -12.051775,-31.82545 0.233499,13.30301 4.705983,22.4107 11.475057,29.24546 z"
         id="path4-2-0-6-7-8-9"
         sodipodi:nodetypes="cscsccc"
         inkscape:label="leaf_05" />
      <path
         style="fill:#ffffff;fill-opacity:1;stroke:none;stroke-width:0.169047px;stroke-linecap:butt;stroke-linejoin:miter;stroke-opacity:1"
         d="m 109.22358,109.22396 c 10.71757,-4.38385 13.7965,-15.411698 10.30883,-22.280932 -3.17526,-6.253806 -3.88252,-8.757693 -4.26236,-12.137551 -10.64681,6.577071 -15.348893,12.727091 -15.662191,20.636401 -0.360983,9.113402 8.743841,16.277822 8.743841,16.277822 -4.70743,-13.542048 0.25208,-23.940221 6.56129,-33.392426 -6.82307,11.422358 -7.83139,21.518718 -5.68941,30.896686 z"
         id="path4-2-0-6-7-3-9-2"
         sodipodi:nodetypes="cscsccc"
         inkscape:label="leaf_06" />
      <path
         style="fill:#ffffff;fill-opacity:1;stroke:none;stroke-width:0.265282px;stroke-linecap:butt;stroke-linejoin:miter;stroke-opacity:1"
         d="m 134.26124,91.397776 c -6.94153,-16.793327 1.95971,-32.401092 13.47146,-36.094011 10.48043,-3.361999 14.05393,-5.337186 18.24299,-8.644549 4.4172,19.135501 2.74832,31.169051 -5.72762,40.249566 -9.76627,10.462914 -27.80801,8.216503 -27.80801,8.216503 20.30084,-9.698553 26.4238,-26.708755 30.00171,-44.180108 -5.2081,20.219348 -15.35615,32.489358 -28.18053,40.452599 z"
         id="path4-2-0-6-7-3-2-7-6"
         sodipodi:nodetypes="cscsccc"
         inkscape:label="leaf_07" />
      <path
         style="fill:#ffffff;fill-opacity:1;stroke:none;stroke-width:0.223169px;stroke-linecap:butt;stroke-linejoin:miter;stroke-opacity:1"
         d="m 160.97323,116.28035 c -7.20577,-13.48193 -1.05039,-27.287136 8.2799,-31.334706 8.49441,-3.684891 11.32189,-5.635189 14.55407,-8.751836 5.28705,15.652316 4.88936,25.864722 -1.45208,34.170362 -7.30681,9.57007 -22.59691,9.18789 -22.59691,9.18789 16.18925,-9.8051 19.90232,-24.553599 21.44654,-39.476788 -2.68069,17.359048 -10.15703,28.473618 -20.23152,36.205078 z"
         id="path4-2-0-6-7-3-2-6-3-6"
         sodipodi:nodetypes="cscsccc"
         inkscape:label="leaf_08" />
      <path
         style="fill:#ffffff;fill-opacity:1;stroke:none;stroke-width:0.161752px;stroke-linecap:butt;stroke-linejoin:miter;stroke-opacity:1"
         d="m 131.57202,129.1025 c -6.93088,-8.64433 -4.38597,-19.30015 1.72163,-23.42757 5.56045,-3.75762 7.31484,-5.52401 9.20206,-8.175271 5.85326,10.446361 6.93134,17.775011 3.52073,24.537571 -3.92982,7.79207 -14.87388,9.55811 -14.87388,9.55811 10.22659,-9.14363 10.90577,-20.1459 10.01652,-30.98348 0.40432,12.72447 -3.44036,21.63949 -9.58706,28.49064 z"
         id="path4-2-0-6-7-3-2-6-1-6-4"
         sodipodi:nodetypes="cscsccc"
         inkscape:label="leaf_09" />
      <path
         style="fill:#ffffff;fill-opacity:1;stroke:none;stroke-width:0.196383px;stroke-linecap:butt;stroke-linejoin:miter;stroke-opacity:1"
         d="m 165.00228,136.78821 c 0.7073,-13.43337 11.62525,-21.03053 20.49455,-19.83359 8.07469,1.08976 11.09179,0.90737 14.9444,0.0307 -3.14005,14.19501 -8.08653,21.706 -16.64217,25.07624 -9.85812,3.88331 -21.20064,-3.36195 -21.20064,-3.36195 16.65526,-0.0186 26.16292,-9.43757 34.11648,-19.97498 -9.91794,11.85496 -20.60651,16.82448 -31.71262,18.06361 z"
         id="path4-2-0-6-7-3-2-6-1-4-12-9"
         sodipodi:nodetypes="cscsccc"
         inkscape:label="leaf_10" />
      <path
         style="fill:#ffffff;fill-opacity:1;stroke:none;stroke-width:0.265343px;stroke-linecap:butt;stroke-linejoin:miter;stroke-opacity:1"
         d="m 155.60481,171.31004 c 3.39636,-17.85553 19.39848,-26.03578 31.05439,-22.81611 10.61163,2.93129 14.68415,3.23724 20.00184,2.76607 -6.79218,18.43162 -14.78402,27.58534 -26.85278,30.53736 -13.90605,3.40143 -27.77024,-8.36665 -27.77024,-8.36665 22.30132,3.01203 36.74755,-7.86443 49.3171,-20.52159 -15.43969,14.0629 -30.65559,18.76712 -45.75031,18.40098 z"
         id="path4-2-0-6-7-3-2-6-1-4-1-9-5"
         sodipodi:nodetypes="cscsccc"
         inkscape:label="leaf_11" />
    </g>
  </g>
</svg>
