<?xml version="1.0" encoding="UTF-8" standalone="no"?>
<!-- Created with Inkscape (http://www.inkscape.org/) -->

<svg
   version="1.1"
   id="svg1"
   width="24"
   height="24"
   viewBox="0 0 24 24"
   sodipodi:docname="teaming.svg"
   inkscape:version="1.4.3 (0d15f75042, 2025-12-25)"
   xmlns:inkscape="http://www.inkscape.org/namespaces/inkscape"
   xmlns:sodipodi="http://sodipodi.sourceforge.net/DTD/sodipodi-0.dtd"
   xmlns="http://www.w3.org/2000/svg"
   xmlns:svg="http://www.w3.org/2000/svg">
  <defs
     id="defs1" />
  <sodipodi:namedview
     id="namedview1"
     pagecolor="#505050"
     bordercolor="#ffffff"
     borderopacity="1"
     inkscape:showpageshadow="0"
     inkscape:pageopacity="0"
     inkscape:pagecheckerboard="1"
     inkscape:deskcolor="#d1d1d1"
     inkscape:zoom="17.615764"
     inkscape:cx="11.921141"
     inkscape:cy="12.290129"
     inkscape:window-width="1920"
     inkscape:window-height="1031"
     inkscape:window-x="0"
     inkscape:window-y="0"
     inkscape:window-maximized="0"
     inkscape:current-layer="g1" />
  <g
     inkscape:groupmode="layer"
     inkscape:label="Image"
     id="g1">
    <path
       id="path1"
       style="fill:#ffffff;stroke-width:0.395379;stroke-linecap:round;stroke-linejoin:round"
       d="m 6.3474166,1.7948281 c -2.325499,0.07649 -4.663397,1.305116 -5.87687102,3.956018 -0.728983,1.592504 -0.554287,3.227216 0.135944,4.6624499 0.42257302,0.878677 1.02011202,1.706742 1.72000802,2.508167 a 0.96257538,0.96257538 0 0 0 0.199511,0.224616 c 0.38771,0.429905 0.80321,0.852786 1.235254,1.272379 2.461661,2.390715 5.476104,4.71004 7.1380334,6.97618 a 0.82047583,0.82047583 0 0 0 0.21874,0.603072 0.82047583,0.82047583 0 0 0 0.93906,0.112975 0.82047583,0.82047583 0 0 0 0.291119,-0.05555 0.82047583,0.82047583 0 0 0 0.158647,-0.232894 c 2.241549,-2.091546 5.264964,-4.253957 7.670327,-6.641528 2.482612,-2.46425 4.387152,-5.3181199 3.669973,-8.6109909 -0.978151,-4.491096 -8.051685,-5.56084 -11.108206,-1.647361 -1.229416,-1.741765 -3.2664564,-2.86137 -5.3987954,-3.090673 -0.328391,-0.03531 -0.660529,-0.04778 -0.992744,-0.03686 z m 0.04701,1.632939 c 0.168744,-0.0029 0.338529,0.0015 0.508791,0.01282 a 0.96257538,0.96257538 0 0 0 -5.33e-4,0.03419 0.96257538,0.96257538 0 0 0 0.214466,0.605742 c -1.045865,0.796647 -1.700178,1.857007 -2.080302,3.253059 a 0.96257538,0.96257538 0 0 0 -0.345337,-0.0641 0.96257538,0.96257538 0 0 0 -0.546717,0.170131 l -1.182372,-1.336745 a 0.96257538,0.96257538 0 0 0 0.210461,-0.6004 0.96257538,0.96257538 0 0 0 -0.208858,-0.598531 c 0.945116,-1.016322 2.159714,-1.45406 3.430401,-1.476162 z m 2.355129,0.426797 c 1.4338864,0.560585 2.6584594,1.635921 3.1940334,2.976896 a 0.82055788,0.82055788 0 0 0 0.563543,0.491431 h 2.74e-4 l 0.06917,0.504517 a 0.96257538,0.96257538 0 0 0 -0.642332,0.508525 c -1.257457,-0.682962 -2.7342114,-1.149786 -4.1536664,-1.182105 -0.82981,-0.01889 -1.639963,0.11061 -2.375427,0.432138 a 0.96257538,0.96257538 0 0 0 -0.110839,-0.104429 c 0.369017,-1.40734 0.999138,-2.43066 2.038904,-3.204716 a 0.96257538,0.96257538 0 0 0 0.532027,0.160516 0.96257538,0.96257538 0 0 0 0.884309,-0.582773 z m 9.2778934,0.362697 c 0.233986,0.0066 0.466716,0.02683 0.695749,0.06009 a 0.96257538,0.96257538 0 0 0 0.560605,0.416915 c -0.02899,0.529954 -0.07829,1.028909 -0.145026,1.501535 a 0.96257538,0.96257538 0 0 0 -0.421722,-0.09722 0.96257538,0.96257538 0 0 0 -0.575294,0.190696 c -0.663952,-0.559627 -1.427355,-1.053356 -2.260049,-1.501 a 0.96257538,0.96257538 0 0 0 0.06971,-0.243579 c 0.660531,-0.243884 1.37407,-0.347189 2.076028,-0.327443 z m 1.969196,0.395549 c 1.135121,0.448132 2.017646,1.253374 2.24696,2.306253 0.129291,0.593628 0.147737,1.173751 0.06971,1.744312 a 0.96257538,0.96257538 0 0 0 -0.224616,-0.02644 0.96257538,0.96257538 0 0 0 -0.337057,0.06089 c -0.485401,-0.832058 -1.201615,-1.372303 -2.073095,-1.681545 a 0.96257538,0.96257538 0 0 0 -0.276964,-0.632183 c 0.07811,-0.51932 0.135354,-1.069226 0.167994,-1.655908 a 0.96257538,0.96257538 0 0 0 0.427065,-0.115379 z m -4.267971,0.419586 c 0.81877,0.439084 1.565213,0.920892 2.210372,1.462006 a 0.96257538,0.96257538 0 0 0 -0.184554,0.566748 0.96257538,0.96257538 0 0 0 0,0.0048 c -1.443564,0.190838 -2.730694,0.65917 -4.141908,1.189316 A 0.96257538,0.96257538 0 0 0 12.86315,7.8044391 l -0.06357,-0.462586 a 0.82055788,0.82055788 0 0 0 0.655954,-0.48235 c 0.287092,-0.64769 0.694349,-1.165349 1.178098,-1.564833 a 0.96257538,0.96257538 0 0 0 0.365635,0.07211 0.96257538,0.96257538 0 0 0 0.7294,-0.334386 z m -12.9769784,1.265701 1.18344,1.338348 a 0.96257538,0.96257538 0 0 0 -0.206187,0.595593 0.96257538,0.96257538 0 0 0 0.356554,0.747829 c -0.525204,0.791744 -0.825252,1.5688889 -0.826084,2.4678379 a 0.96257538,0.96257538 0 0 0 -0.02537,-0.0029 c -0.482733,-0.593935 -0.876761,-1.177212 -1.14872,-1.7427099 -0.542479,-1.128006 -0.647817,-2.120895 -0.12259,-3.268282 1.64e-4,-3.56e-4 3.69e-4,-7.11e-4 5.33e-4,-0.0011 a 0.96257538,0.96257538 0 0 0 0.247051,0.03232 0.96257538,0.96257538 0 0 0 0.541375,-0.166926 z m 16.8950724,1.011974 c 0.787581,0.292276 1.415102,0.776432 1.853816,1.527174 a 0.96257538,0.96257538 0 0 0 -0.374449,0.762252 0.96257538,0.96257538 0 0 0 0.17841,0.5582019 c -1.102785,1.08716 -2.269908,1.499244 -3.640327,1.385621 a 0.96257538,0.96257538 0 0 0 -0.3197,-0.429201 C 17.8809,10.141366 18.45574,9.2050581 18.874097,8.0106271 a 0.96257538,0.96257538 0 0 0 0.772668,-0.700556 z m -1.84794,0.03953 a 0.96257538,0.96257538 0 0 0 0.769997,0.66263 c -0.403939,1.116398 -0.950893,2.0109459 -1.47643,2.9643429 a 0.96257538,0.96257538 0 0 0 -0.329579,-0.05796 0.96257538,0.96257538 0 0 0 -0.580101,0.194436 C 15.481223,10.370337 14.633098,9.6990241 13.71087,9.0637301 a 0.96257538,0.96257538 0 0 0 0.04754,-0.299132 0.96257538,0.96257538 0 0 0 -0.03178,-0.245448 c 1.406302,-0.528138 2.668384,-0.984826 4.072199,-1.169552 z m -9.9263694,0.09989 c 1.352409,0.05165 2.7681204,0.503403 3.9725774,1.165012 a 0.96257538,0.96257538 0 0 0 -0.01175,0.1501 0.96257538,0.96257538 0 0 0 0.05796,0.329312 C 10.889615,9.6173301 9.9802166,10.329289 9.0719286,11.022514 a 0.96257538,0.96257538 0 0 0 -0.658624,-0.260405 0.96257538,0.96257538 0 0 0 -0.485021,0.131138 C 7.2237746,10.321321 6.3842146,9.5978011 5.4729906,8.7939781 a 0.96257538,0.96257538 0 0 0 0.181082,-0.56194 0.96257538,0.96257538 0 0 0 -0.08814,-0.402493 c 0.706402,-0.298103 1.495074,-0.41105 2.30652,-0.380058 z m -2.600578,1.550411 c 0.896897,0.79131 1.725807,1.5056229 2.428577,2.0778979 a 0.96257538,0.96257538 0 0 0 -0.249722,0.646873 0.96257538,0.96257538 0 0 0 0.0061,0.107367 c -0.760431,0.354662 -1.871282,0.501796 -3.37378,0.392344 a 0.96257538,0.96257538 0 0 0 -0.535766,-0.692812 c -0.01896,-0.87832 0.258152,-1.6149469 0.786289,-2.4061409 a 0.96257538,0.96257538 0 0 0 0.35789,0.06917 0.96257538,0.96257538 0 0 0 0.580369,-0.194703 z m 8.3086544,0.322368 c 0.902829,0.624059 1.726454,1.2800059 2.401334,1.9961709 a 0.96257538,0.96257538 0 0 0 -0.181616,0.562742 0.96257538,0.96257538 0 0 0 0.112174,0.450835 c -0.698138,0.636781 -1.386714,1.22273 -2.057332,1.714666 A 0.96257538,0.96257538 0 0 0 13.21757,13.591575 l -0.0243,-3.9501419 a 0.96257538,0.96257538 0 0 0 0.387269,-0.319163 z m -1.551747,0.02404 a 0.96257538,0.96257538 0 0 0 0.76706,0.380859 0.96257538,0.96257538 0 0 0 0.110838,-0.0064 l 0.0235,3.8561299 a 0.96257538,0.96257538 0 0 0 -0.684265,0.393145 c -0.855918,-0.547736 -1.848848,-1.231706 -2.9069194,-1.98068 a 0.96257538,0.96257538 0 0 0 0.03686,-0.264679 0.96257538,0.96257538 0 0 0 -0.126063,-0.476474 C 10.160068,10.553534 11.058453,9.8528171 12.028787,9.3463201 Z m 9.475268,1.0178489 a 0.96257538,0.96257538 0 0 0 0.231025,0.130603 c -0.580113,1.186272 -1.531406,2.347542 -2.714086,3.521476 -0.519059,0.51522 -1.076405,1.025569 -1.655642,1.532784 -0.0054,-0.940604 -0.01459,-1.886018 -0.119118,-2.83561 a 0.96257538,0.96257538 0 0 0 0.479145,-0.832227 0.96257538,0.96257538 0 0 0 -0.0011,-0.0454 c 1.406954,0.09494 2.651994,-0.361707 3.779745,-1.471622 z M 7.5327296,12.113546 a 0.96257538,0.96257538 0 0 0 0.248654,0.337057 c -0.181812,0.988259 -0.302215,2.01928 -0.321567,3.117648 -0.885993,-0.784887 -1.762266,-1.556762 -2.555173,-2.326817 -0.248515,-0.241354 -0.488384,-0.482074 -0.717383,-0.721923 1.44177,0.09334 2.543026,-0.04504 3.345469,-0.405965 z m 1.684219,0.141286 c 1.0526644,0.74463 2.0408024,1.42459 2.8965044,1.971333 a 0.96257538,0.96257538 0 0 0 -0.05074,0.308746 0.96257538,0.96257538 0 0 0 0.101758,0.430537 c -1.059217,0.514766 -2.2034594,0.958713 -3.5107934,1.272645 a 0.96257538,0.96257538 0 0 0 -0.90701,-0.655686 c 0.01784,-1.043124 0.128335,-2.024951 0.296995,-2.96915 a 0.96257538,0.96257538 0 0 0 0.369642,0.07398 0.96257538,0.96257538 0 0 0 0.803649,-0.432406 z m 6.8674804,0.309015 a 0.96257538,0.96257538 0 0 0 0.678387,0.279901 0.96257538,0.96257538 0 0 0 0.206188,-0.02244 c 0.09365,0.894922 0.103866,1.793763 0.109236,2.696995 a 0.96257538,0.96257538 0 0 0 -0.879233,0.599866 c -0.733779,-0.368626 -1.511586,-0.78079 -2.292633,-1.195727 a 0.96257538,0.96257538 0 0 0 0.08146,-0.387536 0.96257538,0.96257538 0 0 0 -0.0235,-0.212329 c 0.69517,-0.504913 1.403914,-1.10637 2.120098,-1.758735 z m -2.332427,2.602178 c 0.809316,0.429964 1.617059,0.857802 2.378898,1.239261 a 0.96257538,0.96257538 0 0 0 -0.0029,0.07558 0.96257538,0.96257538 0 0 0 0.0072,0.118584 c -1.261043,1.055492 -2.569387,2.102936 -3.776005,3.159312 a 0.96257538,0.96257538 0 0 0 -0.269522,-0.245983 c 0.329349,-1.325047 0.699679,-2.651386 0.88324,-4.016913 a 0.96257538,0.96257538 0 0 0 0.05235,0.0016 0.96257538,0.96257538 0 0 0 0.726731,-0.331449 z m -1.419541,0.03712 a 0.96257538,0.96257538 0 0 0 0.358423,0.234231 c -0.177196,1.331705 -0.539923,2.640638 -0.869351,3.962963 a 0.96257538,0.96257538 0 0 0 -0.233964,-0.02885 0.96257538,0.96257538 0 0 0 -0.182684,0.01736 C 10.596326,18.451396 9.6606566,17.551141 8.6953376,16.67316 a 0.96257538,0.96257538 0 0 0 0.0085,-0.1282 0.96257538,0.96257538 0 0 0 -2.74e-4,-0.0235 c 1.3548954,-0.323856 2.5384054,-0.785345 3.6288434,-1.318316 z" />
  </g>
</svg>
